<mxfile host="app.diagrams.net" modified="2023-07-18T23:20:42.579Z" agent="Mozilla/5.0 (Windows NT 10.0; Win64; x64) AppleWebKit/537.36 (KHTML, like Gecko) Chrome/114.0.0.0 Safari/537.36" etag="_qKnDbTf7x0uaR6gx05m" version="21.3.2" type="device">
  <diagram name="Page-1" id="fW9pntQt7sMO0nhyyiCq">
    <mxGraphModel dx="2261" dy="760" grid="1" gridSize="10" guides="1" tooltips="1" connect="1" arrows="1" fold="1" page="1" pageScale="1" pageWidth="827" pageHeight="1169" math="0" shadow="0">
      <root>
        <mxCell id="0" />
        <mxCell id="1" parent="0" />
        <mxCell id="xTNSP5G7i1Dp8BfqKroU-3" value="Cinemas" style="swimlane;fontStyle=0;childLayout=stackLayout;horizontal=1;startSize=30;horizontalStack=0;resizeParent=1;resizeParentMax=0;resizeLast=0;collapsible=1;marginBottom=0;whiteSpace=wrap;html=1;" vertex="1" parent="1">
          <mxGeometry x="-680" y="100" width="140" height="120" as="geometry" />
        </mxCell>
        <mxCell id="xTNSP5G7i1Dp8BfqKroU-43" value="id: int" style="text;strokeColor=none;fillColor=none;align=left;verticalAlign=middle;spacingLeft=4;spacingRight=4;overflow=hidden;points=[[0,0.5],[1,0.5]];portConstraint=eastwest;rotatable=0;whiteSpace=wrap;html=1;" vertex="1" parent="xTNSP5G7i1Dp8BfqKroU-3">
          <mxGeometry y="30" width="140" height="30" as="geometry" />
        </mxCell>
        <mxCell id="xTNSP5G7i1Dp8BfqKroU-5" value="Noms_cine: varchar ()" style="text;strokeColor=none;fillColor=none;align=left;verticalAlign=middle;spacingLeft=4;spacingRight=4;overflow=hidden;points=[[0,0.5],[1,0.5]];portConstraint=eastwest;rotatable=0;whiteSpace=wrap;html=1;" vertex="1" parent="xTNSP5G7i1Dp8BfqKroU-3">
          <mxGeometry y="60" width="140" height="30" as="geometry" />
        </mxCell>
        <mxCell id="xTNSP5G7i1Dp8BfqKroU-6" value="titre_film: varchar ()" style="text;strokeColor=none;fillColor=none;align=left;verticalAlign=middle;spacingLeft=4;spacingRight=4;overflow=hidden;points=[[0,0.5],[1,0.5]];portConstraint=eastwest;rotatable=0;whiteSpace=wrap;html=1;" vertex="1" parent="xTNSP5G7i1Dp8BfqKroU-3">
          <mxGeometry y="90" width="140" height="30" as="geometry" />
        </mxCell>
        <mxCell id="xTNSP5G7i1Dp8BfqKroU-7" value="Administrateurs" style="swimlane;fontStyle=0;childLayout=stackLayout;horizontal=1;startSize=30;horizontalStack=0;resizeParent=1;resizeParentMax=0;resizeLast=0;collapsible=1;marginBottom=0;whiteSpace=wrap;html=1;shadow=1;strokeColor=#FFB570;" vertex="1" parent="1">
          <mxGeometry x="-210" y="240" width="190" height="180" as="geometry" />
        </mxCell>
        <mxCell id="xTNSP5G7i1Dp8BfqKroU-33" value="id: int" style="text;strokeColor=none;fillColor=none;align=left;verticalAlign=middle;spacingLeft=4;spacingRight=4;overflow=hidden;points=[[0,0.5],[1,0.5]];portConstraint=eastwest;rotatable=0;whiteSpace=wrap;html=1;" vertex="1" parent="xTNSP5G7i1Dp8BfqKroU-7">
          <mxGeometry y="30" width="190" height="30" as="geometry" />
        </mxCell>
        <mxCell id="xTNSP5G7i1Dp8BfqKroU-35" value="utilisateurs: varchar ()" style="text;strokeColor=none;fillColor=none;align=left;verticalAlign=middle;spacingLeft=4;spacingRight=4;overflow=hidden;points=[[0,0.5],[1,0.5]];portConstraint=eastwest;rotatable=0;whiteSpace=wrap;html=1;" vertex="1" parent="xTNSP5G7i1Dp8BfqKroU-7">
          <mxGeometry y="60" width="190" height="30" as="geometry" />
        </mxCell>
        <mxCell id="xTNSP5G7i1Dp8BfqKroU-34" value="password: varchar ()" style="text;strokeColor=none;fillColor=none;align=left;verticalAlign=middle;spacingLeft=4;spacingRight=4;overflow=hidden;points=[[0,0.5],[1,0.5]];portConstraint=eastwest;rotatable=0;whiteSpace=wrap;html=1;" vertex="1" parent="xTNSP5G7i1Dp8BfqKroU-7">
          <mxGeometry y="90" width="190" height="30" as="geometry" />
        </mxCell>
        <mxCell id="xTNSP5G7i1Dp8BfqKroU-44" value="titre_film: varchar ()" style="text;strokeColor=none;fillColor=none;align=left;verticalAlign=middle;spacingLeft=4;spacingRight=4;overflow=hidden;points=[[0,0.5],[1,0.5]];portConstraint=eastwest;rotatable=0;whiteSpace=wrap;html=1;" vertex="1" parent="xTNSP5G7i1Dp8BfqKroU-7">
          <mxGeometry y="120" width="190" height="30" as="geometry" />
        </mxCell>
        <mxCell id="xTNSP5G7i1Dp8BfqKroU-42" value="Foreign Key" style="text;strokeColor=none;fillColor=none;align=left;verticalAlign=middle;spacingLeft=4;spacingRight=4;overflow=hidden;points=[[0,0.5],[1,0.5]];portConstraint=eastwest;rotatable=0;whiteSpace=wrap;html=1;" vertex="1" parent="xTNSP5G7i1Dp8BfqKroU-7">
          <mxGeometry y="150" width="190" height="30" as="geometry" />
        </mxCell>
        <mxCell id="xTNSP5G7i1Dp8BfqKroU-11" value="Reservations" style="swimlane;fontStyle=0;childLayout=stackLayout;horizontal=1;startSize=30;horizontalStack=0;resizeParent=1;resizeParentMax=0;resizeLast=0;collapsible=1;marginBottom=0;whiteSpace=wrap;html=1;" vertex="1" parent="1">
          <mxGeometry x="-690" y="320" width="140" height="180" as="geometry" />
        </mxCell>
        <mxCell id="xTNSP5G7i1Dp8BfqKroU-12" value="id: int" style="text;strokeColor=none;fillColor=none;align=left;verticalAlign=middle;spacingLeft=4;spacingRight=4;overflow=hidden;points=[[0,0.5],[1,0.5]];portConstraint=eastwest;rotatable=0;whiteSpace=wrap;html=1;" vertex="1" parent="xTNSP5G7i1Dp8BfqKroU-11">
          <mxGeometry y="30" width="140" height="30" as="geometry" />
        </mxCell>
        <mxCell id="xTNSP5G7i1Dp8BfqKroU-13" value="nom_cine: varchar ()" style="text;strokeColor=none;fillColor=none;align=left;verticalAlign=middle;spacingLeft=4;spacingRight=4;overflow=hidden;points=[[0,0.5],[1,0.5]];portConstraint=eastwest;rotatable=0;whiteSpace=wrap;html=1;" vertex="1" parent="xTNSP5G7i1Dp8BfqKroU-11">
          <mxGeometry y="60" width="140" height="30" as="geometry" />
        </mxCell>
        <mxCell id="xTNSP5G7i1Dp8BfqKroU-51" value="titre_film: varchar ()" style="text;strokeColor=none;fillColor=none;align=left;verticalAlign=middle;spacingLeft=4;spacingRight=4;overflow=hidden;points=[[0,0.5],[1,0.5]];portConstraint=eastwest;rotatable=0;whiteSpace=wrap;html=1;" vertex="1" parent="xTNSP5G7i1Dp8BfqKroU-11">
          <mxGeometry y="90" width="140" height="30" as="geometry" />
        </mxCell>
        <mxCell id="xTNSP5G7i1Dp8BfqKroU-14" value="Tarifs: float" style="text;strokeColor=none;fillColor=none;align=left;verticalAlign=middle;spacingLeft=4;spacingRight=4;overflow=hidden;points=[[0,0.5],[1,0.5]];portConstraint=eastwest;rotatable=0;whiteSpace=wrap;html=1;" vertex="1" parent="xTNSP5G7i1Dp8BfqKroU-11">
          <mxGeometry y="120" width="140" height="30" as="geometry" />
        </mxCell>
        <mxCell id="xTNSP5G7i1Dp8BfqKroU-52" value="noms_clients : varchar()" style="text;strokeColor=none;fillColor=none;align=left;verticalAlign=middle;spacingLeft=4;spacingRight=4;overflow=hidden;points=[[0,0.5],[1,0.5]];portConstraint=eastwest;rotatable=0;whiteSpace=wrap;html=1;" vertex="1" parent="xTNSP5G7i1Dp8BfqKroU-11">
          <mxGeometry y="150" width="140" height="30" as="geometry" />
        </mxCell>
        <mxCell id="xTNSP5G7i1Dp8BfqKroU-27" value="" style="endArrow=classic;html=1;rounded=0;entryX=0.993;entryY=0.15;entryDx=0;entryDy=0;entryPerimeter=0;strokeColor=#FFB570;" edge="1" parent="1" target="xTNSP5G7i1Dp8BfqKroU-11">
          <mxGeometry width="50" height="50" relative="1" as="geometry">
            <mxPoint x="-400" y="280" as="sourcePoint" />
            <mxPoint x="-540" y="265" as="targetPoint" />
            <Array as="points" />
          </mxGeometry>
        </mxCell>
        <mxCell id="xTNSP5G7i1Dp8BfqKroU-50" value="" style="endArrow=classic;html=1;rounded=0;entryX=0;entryY=-0.2;entryDx=0;entryDy=0;entryPerimeter=0;strokeColor=#97D077;" edge="1" parent="1" target="xTNSP5G7i1Dp8BfqKroU-5">
          <mxGeometry width="50" height="50" relative="1" as="geometry">
            <mxPoint x="-690" y="330" as="sourcePoint" />
            <mxPoint x="-70" y="200" as="targetPoint" />
            <Array as="points">
              <mxPoint x="-730" y="330" />
              <mxPoint x="-760" y="330" />
              <mxPoint x="-760" y="154" />
            </Array>
          </mxGeometry>
        </mxCell>
        <mxCell id="xTNSP5G7i1Dp8BfqKroU-56" value="&lt;h1&gt;&lt;font style=&quot;font-size: 14px;&quot;&gt;1&lt;/font&gt;&lt;/h1&gt;" style="text;html=1;strokeColor=none;fillColor=none;spacing=5;spacingTop=-20;whiteSpace=wrap;overflow=hidden;rounded=0;" vertex="1" parent="1">
          <mxGeometry x="-720" y="120" width="30" height="30" as="geometry" />
        </mxCell>
        <mxCell id="xTNSP5G7i1Dp8BfqKroU-57" value="&lt;h1&gt;&lt;font style=&quot;font-size: 14px;&quot;&gt;1..*&lt;/font&gt;&lt;/h1&gt;" style="text;html=1;strokeColor=none;fillColor=none;spacing=5;spacingTop=-20;whiteSpace=wrap;overflow=hidden;rounded=0;" vertex="1" parent="1">
          <mxGeometry x="-730" y="290" width="30" height="30" as="geometry" />
        </mxCell>
        <mxCell id="xTNSP5G7i1Dp8BfqKroU-58" value="" style="endArrow=classic;html=1;rounded=0;entryX=0.986;entryY=0.125;entryDx=0;entryDy=0;entryPerimeter=0;strokeColor=#FFB570;" edge="1" parent="1" target="xTNSP5G7i1Dp8BfqKroU-3">
          <mxGeometry width="50" height="50" relative="1" as="geometry">
            <mxPoint x="-400" y="280" as="sourcePoint" />
            <mxPoint x="-70" y="200" as="targetPoint" />
          </mxGeometry>
        </mxCell>
        <mxCell id="xTNSP5G7i1Dp8BfqKroU-59" value="" style="rhombus;whiteSpace=wrap;html=1;strokeColor=#FFB570;" vertex="1" parent="1">
          <mxGeometry x="-400" y="240" width="80" height="80" as="geometry" />
        </mxCell>
        <mxCell id="xTNSP5G7i1Dp8BfqKroU-60" value="" style="endArrow=none;html=1;rounded=0;entryX=1;entryY=0.5;entryDx=0;entryDy=0;strokeColor=#FFB570;" edge="1" parent="1" target="xTNSP5G7i1Dp8BfqKroU-59">
          <mxGeometry width="50" height="50" relative="1" as="geometry">
            <mxPoint x="-210" y="260" as="sourcePoint" />
            <mxPoint x="-70" y="200" as="targetPoint" />
          </mxGeometry>
        </mxCell>
      </root>
    </mxGraphModel>
  </diagram>
</mxfile>
